<svg width="50" height="57" viewBox="0 0 50 57" fill="none" xmlns="http://www.w3.org/2000/svg">
<path d="M8 32.5C8 30.6144 8 29.6716 8.58579 29.0858C9.17157 28.5 10.1144 28.5 12 28.5H37.3333C39.219 28.5 40.1618 28.5 40.7475 29.0858C41.3333 29.6716 41.3333 30.6144 41.3333 32.5V47.5C41.3333 50.3284 41.3333 51.7426 40.4547 52.6213C39.576 53.5 38.1618 53.5 35.3333 53.5H14C11.1716 53.5 9.75736 53.5 8.87868 52.6213C8 51.7426 8 50.3284 8 47.5V32.5Z" fill="#858585" stroke="#858585" stroke-width="6"/>
<path d="M33.0002 26.4167V24.3333C33.0002 21.2179 33.0002 19.6603 32.3303 18.5C31.8914 17.7399 31.2603 17.1087 30.5002 16.6699C29.3399 16 27.7822 16 24.6668 16V16C21.5514 16 19.9938 16 18.8335 16.6699C18.0734 17.1087 17.4422 17.7399 17.0034 18.5C16.3335 19.6603 16.3335 21.2179 16.3335 24.3333V26.4167" stroke="#858585" stroke-width="6" stroke-linecap="round"/>
<ellipse cx="24.6667" cy="41" rx="4.16667" ry="4.16667" fill="#858585"/>
</svg>
