<svg width="50" height="50" viewBox="0 0 50 50" fill="none" xmlns="http://www.w3.org/2000/svg">
<path d="M30.0312 33.917C29.4096 33.917 28.8135 34.1639 28.374 34.6035C27.9344 35.043 27.6875 35.6391 27.6875 36.2607V41.9707C27.6867 42.8483 27.3378 43.6898 26.7173 44.3104C26.0969 44.9311 25.2555 45.2802 24.3779 45.2812H7.99707C7.11947 45.2802 6.27812 44.9311 5.65765 44.3104C5.03718 43.6898 4.68828 42.8483 4.6875 41.9707V7.99805C4.68828 7.12044 5.03718 6.27899 5.65765 5.65834C6.27812 5.03769 7.11947 4.68853 7.99707 4.6875H24.3779C25.2555 4.68853 26.0969 5.03769 26.7173 5.65834C27.3378 6.27899 27.6867 7.12044 27.6875 7.99805V12.9336C27.6875 13.5552 27.9344 14.1513 28.374 14.5909C28.8135 15.0304 29.4096 15.2773 30.0312 15.2773C30.6529 15.2773 31.249 15.0304 31.6885 14.5909C32.1281 14.1513 32.375 13.5552 32.375 12.9336V7.99805C32.3724 5.87779 31.5291 3.84511 30.0299 2.34577C28.5308 0.846436 26.4982 0.00284267 24.3779 0H7.99707C5.87682 0.00284267 3.84424 0.846436 2.34508 2.34577C0.845928 3.84511 0.00258377 5.87779 0 7.99805V41.9707C0.00258377 44.091 0.845928 46.1236 2.34508 47.623C3.84424 49.1223 5.87682 49.9659 7.99707 49.9687H24.3779C26.4982 49.9659 28.5308 49.1223 30.0299 47.623C31.5291 46.1236 32.3724 44.091 32.375 41.9707V36.2607C32.375 35.6391 32.1281 35.043 31.6885 34.6035C31.249 34.1639 30.6529 33.917 30.0312 33.917Z" fill="black"/>
<path d="M49.2773 23.2783L40.9365 14.9433C40.5026 14.5096 39.916 14.2632 39.3025 14.2572C38.689 14.2512 38.0976 14.4859 37.6553 14.9111C36.708 15.8222 36.7305 17.3652 37.6602 18.2949L42.0029 22.6406H21.6904C21.0688 22.6406 20.4727 22.8875 20.0331 23.3271C19.5936 23.7666 19.3467 24.3627 19.3467 24.9843C19.3467 25.6059 19.5936 26.2021 20.0331 26.6416C20.4727 27.0812 21.0688 27.3281 21.6904 27.3281H42.0029L37.6182 31.7129C37.1785 32.1524 36.9315 32.7486 36.9314 33.3702C36.9313 33.9919 37.1782 34.5881 37.6177 35.0278C38.0572 35.4675 38.6534 35.7145 39.275 35.7146C39.8967 35.7147 40.493 35.4678 40.9326 35.0283L49.2773 26.6875C49.5015 26.4638 49.6793 26.1981 49.8006 25.9056C49.922 25.6131 49.9844 25.2995 49.9844 24.9829C49.9844 24.6662 49.922 24.3527 49.8006 24.0602C49.6793 23.7677 49.5015 23.502 49.2773 23.2783Z" fill="black"/>
</svg>
