<svg width="50" height="50" viewBox="0 0 50 50" fill="none" xmlns="http://www.w3.org/2000/svg">
<path d="M25 50C38.8071 50 50 38.8071 50 25C50 11.1929 38.8071 0 25 0C11.1929 0 0 11.1929 0 25C0 38.8071 11.1929 50 25 50Z" fill="#2196F3"/>
<path d="M25 28.75C27.0711 28.75 28.75 27.0711 28.75 25C28.75 22.9289 27.0711 21.25 25 21.25C22.9289 21.25 21.25 22.9289 21.25 25C21.25 27.0711 22.9289 28.75 25 28.75Z" fill="white"/>
<path d="M13.75 28.75C15.8211 28.75 17.5 27.0711 17.5 25C17.5 22.9289 15.8211 21.25 13.75 21.25C11.6789 21.25 10 22.9289 10 25C10 27.0711 11.6789 28.75 13.75 28.75Z" fill="white"/>
<path d="M36.25 28.75C38.3211 28.75 40 27.0711 40 25C40 22.9289 38.3211 21.25 36.25 21.25C34.1789 21.25 32.5 22.9289 32.5 25C32.5 27.0711 34.1789 28.75 36.25 28.75Z" fill="white"/>
</svg>
