<svg width="50" height="45" viewBox="0 0 50 45" fill="none" xmlns="http://www.w3.org/2000/svg">
<path d="M3.60498 6.93823H46.395V43.8605H3.60498V6.93823Z" fill="#E9EAEB"/>
<path d="M40.9629 6.93823H46.3955V43.8605H40.9629V6.93823Z" fill="#B9BBC1"/>
<path d="M46.5446 6.93789H3.45557V0.876786C3.45557 0.644248 3.5472 0.421234 3.7103 0.256805C3.87341 0.0923754 4.09463 0 4.32529 0H45.6749C45.9056 0 46.1268 0.0923754 46.2899 0.256805C46.453 0.421234 46.5446 0.644248 46.5446 0.876786V6.93789Z" fill="#FDC74F"/>
<path d="M45.6747 0H41.1118V4.56281H46.5444V0.876786C46.5444 0.644248 46.4528 0.421234 46.2897 0.256805C46.1266 0.0923754 45.9054 0 45.6747 0Z" fill="#FCA629"/>
<path d="M3.60498 17.9289C1.63564 17.9289 0.0390625 16.3195 0.0390625 14.3342V11.4055H7.1708V14.3342C7.1709 16.3195 5.57432 17.9289 3.60498 17.9289Z" fill="#E60D28"/>
<path d="M10.7363 17.9289C8.76699 17.9289 7.17041 16.3195 7.17041 14.3342V11.4055H14.3021V14.3342C14.3022 16.3195 12.7057 17.9289 10.7363 17.9289Z" fill="#F2F2F2"/>
<path d="M17.8682 17.9289C15.8988 17.9289 14.3022 16.3195 14.3022 14.3342V11.4055H21.434V14.3342C21.4341 16.3195 19.8375 17.9289 17.8682 17.9289Z" fill="#E60D28"/>
<path d="M25 17.9289C23.0307 17.9289 21.4341 16.3195 21.4341 14.3342V11.4055H28.5658V14.3342C28.5658 16.3195 26.9693 17.9289 25 17.9289Z" fill="#F2F2F2"/>
<path d="M32.1318 17.9289C30.1625 17.9289 28.5659 16.3195 28.5659 14.3342V11.4055H35.6977V14.3342C35.6978 16.3195 34.1012 17.9289 32.1318 17.9289Z" fill="#E60D28"/>
<path d="M39.2637 17.9289C37.2943 17.9289 35.6978 16.3195 35.6978 14.3342V11.4055H42.8295V14.3342C42.8296 16.3195 41.233 17.9289 39.2637 17.9289Z" fill="#F2F2F2"/>
<path d="M46.395 17.9289C44.4257 17.9289 42.8291 16.3195 42.8291 14.3342V11.4055H49.9608V14.3342C49.9609 16.3195 48.3644 17.9289 46.395 17.9289Z" fill="#E60D28"/>
<path d="M7.1708 11.4055H0.0390625L3.45205 4.56287H9.60869L7.1708 11.4055Z" fill="#FC502A"/>
<path d="M14.3021 11.4055H7.17041L9.6083 4.56287H15.7648L14.3021 11.4055Z" fill="white"/>
<path d="M21.434 11.4055H14.3022L15.7649 4.56287H21.9216L21.434 11.4055Z" fill="#FC502A"/>
<path d="M28.5658 11.4055H21.4341L21.9217 4.56287H28.0783L28.5658 11.4055Z" fill="white"/>
<path d="M35.6974 11.4055H28.5656L28.0781 4.56287H34.2348L35.6974 11.4055Z" fill="#FC502A"/>
<path d="M42.8292 11.4055H35.6975L34.2349 4.56287H40.3914L42.8292 11.4055Z" fill="white"/>
<path d="M49.9611 11.4055H42.8294L40.3916 4.56287H46.5482L49.9611 11.4055Z" fill="#FC502A"/>
<path d="M48.3714 40.4868H1.62861C0.729199 40.4868 0 41.2218 0 42.1286V44.5346C0 44.6581 0.0486349 44.7764 0.135206 44.8637C0.221776 44.951 0.339192 45 0.461621 45H49.5383C49.6607 45 49.7781 44.951 49.8647 44.8637C49.9513 44.7764 49.9999 44.6581 49.9999 44.5346V42.1286C50 41.2218 49.2708 40.4868 48.3714 40.4868Z" fill="#8B8996"/>
<path d="M48.3715 40.4868H44.5508V45H49.5385C49.6609 45 49.7783 44.951 49.8649 44.8637C49.9515 44.7764 50.0001 44.6581 50.0001 44.5346V42.1286C50.0001 41.2218 49.2709 40.4868 48.3715 40.4868Z" fill="#706F7F"/>
<path d="M42.1805 35.6613H20.2163C20.0442 35.6613 19.8791 35.5924 19.7574 35.4697C19.6358 35.347 19.5674 35.1806 19.5674 35.0071V22.823C19.5674 22.6495 19.6358 22.4831 19.7574 22.3604C19.8791 22.2377 20.0442 22.1688 20.2163 22.1688H42.1805C42.3526 22.1688 42.5176 22.2377 42.6393 22.3604C42.761 22.4831 42.8294 22.6495 42.8294 22.823V35.0072C42.8294 35.1807 42.761 35.3471 42.6393 35.4698C42.5176 35.5924 42.3526 35.6613 42.1805 35.6613Z" fill="#00C6C8"/>
<path d="M42.1804 22.1688H37.3799V35.6613H42.1804C42.3525 35.6613 42.5175 35.5924 42.6392 35.4697C42.7609 35.347 42.8293 35.1806 42.8293 35.0071V22.823C42.8293 22.6495 42.7609 22.4831 42.6392 22.3604C42.5175 22.2377 42.3525 22.1688 42.1804 22.1688Z" fill="#0FB0C0"/>
<path d="M16.4825 40.4868H6.46143V22.823C6.46143 22.6495 6.52979 22.4831 6.65149 22.3604C6.77319 22.2377 6.93825 22.1688 7.11035 22.1688H15.8336C15.9188 22.1688 16.0032 22.1857 16.0819 22.2186C16.1607 22.2515 16.2322 22.2997 16.2925 22.3604C16.3527 22.4212 16.4005 22.4933 16.4331 22.5727C16.4657 22.652 16.4825 22.7371 16.4825 22.823V40.4868Z" fill="#00C6C8"/>
<path d="M15.8337 22.1688H11.0332V40.4868H16.4825V22.823C16.4825 22.7371 16.4658 22.652 16.4332 22.5727C16.4006 22.4933 16.3528 22.4212 16.2925 22.3604C16.2323 22.2997 16.1608 22.2515 16.082 22.2186C16.0033 22.1857 15.9189 22.1688 15.8337 22.1688Z" fill="#0FB0C0"/>
<path d="M13.6822 32.5157C13.8823 32.5157 14.0742 32.4356 14.2157 32.2929C14.3572 32.1503 14.4367 31.9568 14.4367 31.7551V30.386C14.4367 30.1843 14.3572 29.9908 14.2157 29.8481C14.0742 29.7055 13.8823 29.6254 13.6822 29.6254C13.4821 29.6254 13.2902 29.7055 13.1487 29.8481C13.0072 29.9908 12.9277 30.1843 12.9277 30.386V31.7551C12.9277 31.855 12.9472 31.9539 12.9851 32.0462C13.0231 32.1385 13.0786 32.2223 13.1487 32.293C13.2188 32.3636 13.3019 32.4196 13.3935 32.4579C13.485 32.4961 13.5831 32.5157 13.6822 32.5157Z" fill="white"/>
</svg>
